HIERARCHY
ROOT hip
{
	OFFSET 0.000000 0.000000 0.000000 
	CHANNELS 6 Xposition Yposition Zposition Xrotation Zrotation Yrotation
	JOINT abdomen
	{
		OFFSET 0.000000 3.402643 0.000000 
		CHANNELS 3 Xrotation Zrotation Yrotation
		JOINT chest
		{
			OFFSET 0.000000 8.438565 -0.680529 
			CHANNELS 3 Xrotation Zrotation Yrotation
			JOINT neck
			{
				OFFSET 0.000000 10.207942 -0.272212 
				CHANNELS 3 Xrotation Zrotation Yrotation
				JOINT head
				{
					OFFSET 0.000000 3.130431 0.000000 
					CHANNELS 3 Xrotation Zrotation Yrotation
					End Site
					{
						OFFSET 0.000000 3.130435 0.000000 
					}
				}
			}
			JOINT lCollar
			{
				OFFSET 3.470700 6.669187 -0.816635 
				CHANNELS 3 Yrotation Zrotation Xrotation
				JOINT lShldr
				{
					OFFSET 3.198488 0.000000 0.000000 
					CHANNELS 3 Zrotation Yrotation Xrotation
					JOINT lForeArm
					{
						OFFSET 10.139888 0.000000 0.000000 
						CHANNELS 3 Yrotation Zrotation Xrotation
						JOINT lHand
						{
							OFFSET 8.370511 0.000000 0.000000 
							CHANNELS 3 Zrotation Yrotation Xrotation
							End Site
							{
								OFFSET 4.083176 0.000000 0.000000 
							}
						}
					}
				}
			}
			JOINT rCollar
			{
				OFFSET -3.470700 6.669187 -0.816635 
				CHANNELS 3 Yrotation Zrotation Xrotation
				JOINT rShldr
				{
					OFFSET -3.198488 0.000000 0.000000 
					CHANNELS 3 Zrotation Yrotation Xrotation
					JOINT rForeArm
					{
						OFFSET -10.139888 0.000000 0.000000 
						CHANNELS 3 Yrotation Zrotation Xrotation
						JOINT rHand
						{
							OFFSET -8.370511 0.000000 0.000000 
							CHANNELS 3 Zrotation Yrotation Xrotation
							End Site
							{
								OFFSET -4.083176 0.000000 0.000000 
							}
						}
					}
				}
			}
		}
	}
	JOINT lThigh
	{
		OFFSET 5.308129 -1.633274 1.361059 
		CHANNELS 3 Xrotation Zrotation Yrotation
		JOINT lShin
		{
			OFFSET -2.041588 -20.007561 0.000000 
			CHANNELS 3 Xrotation Zrotation Yrotation
			JOINT lFoot
			{
				OFFSET 0.000000 -19.190928 -1.224953 
				CHANNELS 3 Xrotation Yrotation Zrotation
				End Site
				{
					OFFSET 0.000000 -2.449906 4.627600 
				}
			}
		}
	}
	JOINT rThigh
	{
		OFFSET -5.308129 -1.633274 1.361059 
		CHANNELS 3 Xrotation Zrotation Yrotation
		JOINT rShin
		{
			OFFSET 2.041588 -20.007561 0.000000 
			CHANNELS 3 Xrotation Zrotation Yrotation
			JOINT rFoot
			{
				OFFSET 0.000000 -19.190928 -1.224953 
				CHANNELS 3 Xrotation Yrotation Zrotation
				End Site
				{
					OFFSET 0.000000 -2.449906 4.627600 
				}
			}
		}
	}
}
MOTION
Frames: 18
Frame Time: 0.033333
-0.818454 52.293827 5.152833 24.855785 -6.257370 1.590699 0.000000 0.000000 0.000000 -4.204764 4.791666 7.605323 54.561546 6.289054 0.099208 -13.057005 -1.434366 -2.324957 1.982422 -2.011719 0.000000 -94.658043 -7.403732 0.766859 -43.224270 5.084873 62.570351 -8.951649 -8.528277 -57.110630 -2.001953 1.992188 0.000000 63.941589 7.643687 67.309799 40.160645 -34.104656 18.927485 32.917313 -3.239495 -79.897346 -29.870897 10.369752 17.747911 31.116682 6.808494 0.334441 -2.841905 -9.184398 9.546548 -31.006210 0.028835 2.341216 26.267757 1.293379 1.631113 14.172268 -7.326280 15.639317 
-0.704915 53.053387 4.894125 23.908037 -4.809306 2.655173 0.000000 0.000000 0.000000 -1.362124 3.284433 7.209438 53.711769 6.992158 0.168347 -8.615243 -1.422567 -3.848893 1.982422 -2.011719 0.000000 -96.324989 -9.386769 1.574922 -44.029247 5.437735 64.256706 -13.046488 -2.994279 -57.623962 -2.001953 1.992188 0.000000 65.007813 8.759953 67.741783 42.162632 -35.780220 21.651146 35.718185 -4.096153 -80.140732 -30.587927 7.768531 16.828157 32.756596 7.829032 0.488661 -7.430269 -11.601268 25.892323 -31.966061 -2.567874 1.596496 29.258665 1.117866 1.880082 11.000418 -3.022210 5.071862 
-0.774354 53.158100 4.769636 23.967505 -5.114266 1.940692 0.000000 0.000000 0.000000 -0.511789 3.777720 7.311156 53.230499 5.732417 0.078710 -10.896837 -1.052969 -3.272187 1.982422 -2.011719 0.000000 -96.363136 -10.329681 1.576788 -43.326462 4.372376 65.766502 -12.545421 -4.068819 -57.304161 -2.001953 1.992188 0.000000 65.007584 9.628736 67.585083 42.576641 -35.613819 21.145008 33.959610 -2.844547 -79.858574 -32.094597 8.590638 16.815620 35.583969 7.277146 0.219104 -7.875014 -6.836999 22.923693 -33.392738 -1.884536 1.871062 30.656895 1.547381 2.098889 10.656271 -3.801723 1.764773 
-0.886235 53.058102 4.461182 25.975056 -4.881127 1.509253 0.000000 0.000000 0.000000 -1.388987 3.371483 7.229509 53.236835 5.166014 0.049509 -11.159735 -0.672553 -3.525720 1.982422 -2.011719 0.000000 -94.714493 -8.853164 0.775018 -46.164879 2.714389 62.857124 -12.426372 -1.453227 -57.966011 -2.001953 1.992188 0.000000 65.739807 11.367859 67.704941 41.294300 -35.745281 21.693119 34.867897 -3.962081 -80.043732 -35.737820 8.659765 16.178413 37.544212 7.032146 0.049699 -8.464093 -5.475409 23.547544 -36.490360 -1.552567 2.154002 30.662550 0.756645 1.917630 12.527328 -1.439687 3.388017 
-1.001983 52.188625 4.371825 26.936443 -4.939851 1.440305 0.000000 0.000000 0.000000 -1.482772 3.042484 7.168794 53.069931 5.156249 0.039782 -10.354584 -0.546243 -2.754060 1.982422 -2.011719 0.000000 -96.102493 -11.179787 1.450950 -42.595383 5.118379 64.042442 -8.980704 -2.851484 -57.992050 -2.001953 1.992188 0.000000 64.630585 11.178428 67.081062 42.641949 -37.470200 25.044731 39.503948 -2.068987 -80.510544 -37.818447 8.806518 15.820087 37.660824 6.739049 -0.022369 -8.039785 -6.317724 23.995745 -37.887547 -1.542913 2.234016 30.480371 0.580837 1.864661 14.414049 0.512712 4.289322 
-1.068952 51.083530 4.211875 27.748180 -5.231565 1.882324 0.000000 0.000000 0.000000 -1.420718 3.284433 7.209439 52.601112 5.058593 0.039771 -10.586133 -0.643358 -3.457252 1.982422 -2.011719 0.000000 -95.633759 -11.137136 1.207638 -44.071358 5.040611 62.960102 -10.438545 -4.318425 -57.652370 -2.001953 1.992188 0.000000 66.263840 12.192564 67.851326 38.264561 -40.084362 26.753336 41.492599 4.647835 -80.113960 -40.074177 8.855619 15.395284 37.896873 7.237305 0.067036 -4.559439 -6.982634 18.086699 -39.183121 -1.796781 2.203336 29.750822 1.283988 1.945711 18.631483 -2.974622 4.541440 
-1.269704 49.561047 4.233976 27.020309 -5.974496 1.511999 0.000000 0.000000 0.000000 0.024675 3.777803 7.301412 51.278576 4.199219 -0.009740 -13.819345 -0.848756 -2.568656 1.982422 -2.011719 0.000000 -94.629509 -11.210993 0.696129 -43.604332 4.547812 61.316998 -10.614466 -3.159312 -57.857410 -2.001953 1.992188 0.000000 65.494469 11.832149 67.459869 39.845718 -38.487926 20.297108 36.291588 -4.014254 -80.148376 -40.335808 9.937848 15.657753 38.430328 7.828543 0.151429 -5.357901 -10.421238 27.217699 -38.693859 -0.254113 2.661369 31.409864 -0.035803 1.794857 12.780160 0.775555 -2.245846 
-1.564308 46.779087 3.993737 28.188040 -7.244078 1.357831 0.000000 0.000000 0.000000 0.030904 4.357739 7.434341 47.803444 4.140625 0.010445 -13.261818 -1.190410 -2.344258 1.982422 -2.011719 0.000000 -95.541496 -12.005821 1.155231 -43.849327 4.459819 60.492744 -11.546083 -2.145766 -57.916363 -2.001953 1.992188 0.000000 65.989342 12.814054 67.565392 38.638569 -38.048267 16.981989 33.165215 -2.807490 -79.740700 -45.343712 11.762934 15.150072 43.820324 8.784799 0.062625 -0.119758 -8.560524 12.121222 -42.881592 0.721624 3.184653 38.145847 0.779120 2.626420 15.349027 -5.298748 18.198433 
-1.578971 44.140976 3.899171 27.879354 -6.813290 1.740635 0.000000 0.000000 0.000000 0.902523 3.845609 7.302066 44.122391 3.798828 0.020135 -12.232893 -0.673437 -1.953334 1.982422 -2.011719 0.000000 -96.564766 -13.347054 1.658827 -42.160042 5.116024 63.379410 -7.761807 -6.906920 -57.456650 -2.001953 1.992188 0.000000 67.985664 12.991796 68.700294 36.613560 -38.828362 14.966963 33.664528 -2.226188 -79.815720 -49.609196 10.781343 13.836103 56.059944 11.484825 0.132091 -16.336678 -4.954461 4.685851 -46.852428 -0.146403 3.139169 52.389614 0.812469 4.037787 -10.723022 -7.507001 15.266100 
-1.629263 41.430546 3.491893 28.054899 -6.157601 2.200013 0.000000 0.000000 0.000000 1.642979 2.859056 7.059983 38.991764 4.326166 0.098115 -9.967929 -1.864225 -1.885992 1.982422 -2.011719 0.000000 -97.992073 -15.354883 2.344926 -41.807789 5.578193 64.168839 -10.932502 -5.061569 -57.289528 -2.001953 1.992188 0.000000 70.050606 13.828908 69.760628 35.567799 -39.241665 13.269209 36.104145 -5.396761 -80.324409 -56.205051 10.837430 12.235675 69.424088 10.570432 -0.518943 -31.695530 4.534461 2.001374 -52.907791 -1.357109 3.136939 63.783421 1.124100 5.198134 -23.246273 -9.074771 13.773632 
-1.647651 38.757618 3.692345 23.509768 -5.085897 1.607375 0.000000 0.000000 0.000000 6.172164 1.755611 6.673358 35.447193 4.121087 0.107846 -12.440618 -2.578103 -0.235016 1.982422 -2.011719 0.000000 -98.595268 -16.872786 2.629995 -35.069363 8.044432 58.494240 -7.736906 -4.058854 -58.132710 -2.001953 1.992188 0.000000 70.248192 15.387857 69.548836 32.855095 -37.990162 12.880880 33.912621 -2.300460 -79.919090 -58.648155 10.526007 11.469867 81.355797 13.243330 -0.199256 -33.649700 9.439700 -4.303560 -55.452335 -0.322959 3.574805 75.218918 -0.094916 5.929923 -31.530233 -11.228848 8.626133 
-1.607688 37.933979 3.903164 21.772739 -4.998273 1.509247 0.000000 0.000000 0.000000 7.153909 1.726650 6.634015 35.111382 4.726543 0.167060 -12.100478 -2.548828 0.019512 1.982422 -2.011719 0.000000 -98.257813 -15.909751 2.463996 -36.004009 9.867412 60.468281 -9.706653 -2.667073 -58.156116 -2.001953 1.992188 0.000000 69.477997 15.339162 69.107826 33.473171 -36.146145 10.932916 33.232044 -5.587816 -80.079132 -59.272034 11.228547 11.539517 86.062096 12.509953 -0.418417 -35.698120 10.182237 -1.195433 -56.143284 0.008610 3.752617 80.763840 -0.164109 6.354535 -33.003403 -12.967150 6.968580 
-1.609209 37.992115 4.307286 21.362604 -5.289203 2.167014 0.000000 0.000000 0.000000 5.567286 1.910573 6.732572 36.042294 5.996035 0.255578 -10.882380 -3.027234 -0.489147 1.982422 -2.011719 0.000000 -99.947578 -14.927187 3.298252 -39.647732 7.510527 65.007912 -9.982586 -1.277896 -58.116856 -2.001953 1.992188 0.000000 71.656242 14.330893 70.604393 35.052185 -35.217731 9.800930 31.174957 -8.182751 -79.954025 -56.800270 10.759170 12.069077 84.461868 13.692117 -0.120664 -36.008213 8.582988 -1.677321 -54.211994 0.194323 3.675627 79.565712 -0.466774 6.233220 -30.052372 -13.470222 6.118166 
-1.440926 39.996597 4.874973 20.643875 -6.112494 0.923148 0.000000 0.000000 0.000000 4.194135 3.546552 7.142972 37.694714 5.537077 0.196286 -9.074712 -4.568875 -1.440319 1.982422 -2.011719 0.000000 -99.510674 -11.025005 3.139754 -43.086761 5.744516 64.678886 -8.107271 -5.215106 -57.853363 -2.001953 1.992188 0.000000 71.968231 13.278522 71.004311 38.373592 -35.626892 13.198766 30.634447 -4.615632 -79.915489 -49.669754 12.759144 14.427009 75.642159 12.628973 -0.227644 -31.758234 5.398392 -3.839786 -46.758389 1.248493 3.588931 69.347534 -1.548825 5.096265 -26.841084 -9.056523 16.599028 
-1.250055 42.348610 5.224415 22.348507 -5.380060 0.990223 0.000000 0.000000 0.000000 0.587664 3.207339 7.150379 40.537285 5.761685 0.197267 -7.410542 -4.138924 -1.645508 1.982422 -2.011719 0.000000 -101.942734 -10.249113 4.348065 -42.772388 5.940167 66.661430 -6.097909 -8.053335 -57.863663 -2.001953 1.992188 0.000000 72.402451 12.382936 71.458908 40.089375 -35.321995 15.461923 32.165005 -5.425303 -79.967125 -43.562405 12.039991 15.641414 63.672485 10.296491 -0.449704 -26.793613 0.525098 -0.022507 -41.016632 -0.420328 2.741121 57.355946 -1.584556 4.011320 -19.143044 -5.989278 24.654224 
-0.994514 45.039902 5.692430 21.964432 -4.948113 2.018538 0.000000 0.000000 0.000000 -0.751417 3.120131 7.149827 43.505489 6.757751 0.245892 -8.063826 -3.884226 -2.055991 1.982422 -2.011719 0.000000 -103.077072 -9.699012 4.905724 -41.368660 8.049606 64.135262 -3.057540 -11.598604 -58.198280 -2.001953 1.992188 0.000000 70.361053 9.919433 70.762566 43.431026 -37.005325 24.200069 32.234482 -1.890163 -79.721237 -36.189095 9.334563 16.280058 50.243179 10.287204 0.110475 -11.910836 -3.020691 1.643895 -33.281712 -2.021239 1.822905 44.635124 -1.373888 2.805601 -4.778195 -2.738862 22.908329 
-1.050336 48.511517 5.622735 25.658325 -5.888670 -0.039859 0.000000 0.000000 0.000000 -5.051778 4.357059 7.502498 46.454617 6.191378 0.176863 -8.727305 -4.031107 -1.850746 1.982422 -2.011719 0.000000 -99.715210 -6.561137 3.358510 -44.080181 7.117492 65.431808 -5.290803 -9.581177 -57.871628 -2.001953 1.992188 0.000000 69.331619 10.448638 70.038116 39.980389 -37.588718 21.318338 32.912148 -1.884933 -79.872047 -33.000736 11.322800 17.520292 31.191654 7.994446 0.607963 7.437053 -13.507189 12.349866 -31.868679 -0.303369 2.289632 27.835062 -0.801835 1.263168 15.367958 0.631920 16.522556 
-1.032770 50.503922 5.529407 25.926666 -6.113012 -0.540295 0.000000 0.000000 0.000000 -5.098241 4.695081 7.584240 47.512745 5.732408 0.128269 -10.587065 -3.681027 -1.047155 1.982422 -2.011719 0.000000 -97.593384 -6.355585 2.292956 -43.913250 6.352499 65.870552 -5.478699 -8.439079 -57.952522 -2.001953 1.992188 0.000000 67.135941 10.119545 68.767525 41.539665 -37.112755 23.335596 31.985205 -4.313192 -79.926003 -32.280907 11.656729 17.786528 28.291548 6.822984 0.478562 5.699936 -10.134686 6.747393 -31.710646 0.253391 2.439875 24.825401 -0.122223 1.185222 16.144709 -4.311740 20.222975 
